<svg width="291px" height="291px" viewBox="0 0 291 291" version="1.1" xmlns="http://www.w3.org/2000/svg" xmlns:xlink="http://www.w3.org/1999/xlink">
    <g stroke="none" stroke-width="1" fill="none" fill-rule="evenodd">
        <g id="codepen" fill="#ffffff">
            <path d="M265.6445,166.4072 L234.4645,145.5492 L265.6445,124.6922 L265.6445,166.4072 Z M158.0115,254.8192 L158.0115,196.6862 L212.0465,160.5482 L255.6655,189.7202 L158.0115,254.8192 Z M145.5495,175.0352 L101.4655,145.5492 L145.5495,116.0632 L189.6295,145.5492 L145.5495,175.0352 Z M133.0835,254.8192 L35.4285,189.7202 L79.0515,160.5482 L133.0835,196.6862 L133.0835,254.8192 Z M25.4505,124.6922 L56.6335,145.5492 L25.4505,166.4072 L25.4505,124.6922 Z M133.0835,36.2792 L133.0835,94.4122 L79.0515,130.5582 L35.4285,101.3772 L133.0835,36.2792 Z M158.0115,36.2792 L255.6655,101.3772 L212.0465,130.5582 L158.0115,94.4122 L158.0115,36.2792 Z M290.4615,99.7372 C290.4355,99.5542 290.3895,99.3792 290.3595,99.1962 C290.2975,98.8442 290.2335,98.4932 290.1415,98.1502 C290.0875,97.9442 290.0115,97.7462 289.9475,97.5482 C289.8475,97.2422 289.7485,96.9372 289.6265,96.6402 C289.5415,96.4342 289.4435,96.2282 289.3485,96.0302 C289.2175,95.7472 289.0815,95.4722 288.9245,95.2062 C288.8105,95.0072 288.6885,94.8162 288.5705,94.6262 C288.4025,94.3662 288.2305,94.1142 288.0425,93.8702 C287.9065,93.6872 287.7615,93.5042 287.6165,93.3282 C287.4175,93.1002 287.2115,92.8712 286.9945,92.6572 C286.8315,92.4902 286.6695,92.3222 286.4985,92.1692 C286.2695,91.9632 286.0335,91.7642 285.7925,91.5742 C285.6065,91.4292 285.4225,91.2842 285.2285,91.1472 C285.1555,91.1012 285.0915,91.0402 285.0225,90.9942 L152.4605,2.6202 C148.2735,-0.1718 142.8215,-0.1718 138.6335,2.6202 L6.0725,90.9942 C6.0035,91.0402 5.9385,91.1012 5.8665,91.1472 C5.6715,91.2842 5.4885,91.4292 5.3055,91.5742 C5.0615,91.7642 4.8245,91.9632 4.6005,92.1692 C4.4245,92.3222 4.2645,92.4902 4.1005,92.6572 C3.8835,92.8712 3.6775,93.1002 3.4825,93.3282 C3.3335,93.5042 3.1885,93.6872 3.0515,93.8702 C2.8685,94.1142 2.6925,94.3662 2.5285,94.6262 C2.4025,94.8162 2.2845,95.0072 2.1705,95.2062 C2.0175,95.4722 1.8805,95.7472 1.7465,96.0302 C1.6515,96.2282 1.5525,96.4342 1.4685,96.6402 C1.3465,96.9372 1.2475,97.2422 1.1475,97.5482 C1.0825,97.7462 1.0105,97.9442 0.9535,98.1502 C0.8615,98.4932 0.8005,98.8442 0.7355,99.1962 C0.7055,99.3792 0.6595,99.5542 0.6365,99.7372 C0.5635,100.2712 0.5225,100.8132 0.5225,101.3622 L0.5225,189.7362 C0.5225,190.2852 0.5635,190.8272 0.6365,191.3692 C0.6595,191.5452 0.7055,191.7272 0.7355,191.9022 C0.8005,192.2542 0.8615,192.6042 0.9535,192.9482 C1.0105,193.1542 1.0825,193.3522 1.1475,193.5512 C1.2475,193.8552 1.3465,194.1612 1.4685,194.4662 C1.5525,194.6732 1.6515,194.8712 1.7465,195.0692 C1.8805,195.3502 2.0175,195.6252 2.1705,195.9002 C2.2845,196.0922 2.4025,196.2812 2.5285,196.4722 C2.6925,196.7322 2.8685,196.9842 3.0515,197.2282 C3.1885,197.4192 3.3335,197.5942 3.4825,197.7692 C3.6775,197.9982 3.8835,198.2272 4.1005,198.4412 C4.2645,198.6082 4.4245,198.7762 4.6005,198.9282 C4.8245,199.1362 5.0615,199.3342 5.3055,199.5242 C5.4885,199.6702 5.6715,199.8142 5.8665,199.9512 C5.9385,199.9972 6.0035,200.0582 6.0725,200.1032 L138.6335,288.4782 C140.7275,289.8742 143.1385,290.5762 145.5495,290.5762 C147.9565,290.5762 150.3665,289.8742 152.4605,288.4782 L285.0225,200.1032 C285.0915,200.0582 285.1555,199.9972 285.2285,199.9512 C285.4225,199.8142 285.6065,199.6702 285.7925,199.5242 C286.0335,199.3342 286.2695,199.1362 286.4985,198.9282 C286.6695,198.7762 286.8315,198.6082 286.9945,198.4412 C287.2115,198.2272 287.4175,197.9982 287.6165,197.7692 C287.7615,197.5942 287.9065,197.4192 288.0425,197.2282 C288.2305,196.9842 288.4025,196.7322 288.5705,196.4722 C288.6885,196.2812 288.8105,196.0922 288.9245,195.9002 C289.0815,195.6252 289.2175,195.3502 289.3485,195.0692 C289.4435,194.8712 289.5415,194.6732 289.6265,194.4662 C289.7485,194.1612 289.8475,193.8552 289.9475,193.5512 C290.0115,193.3522 290.0875,193.1542 290.1415,192.9482 C290.2335,192.6042 290.2975,192.2542 290.3595,191.9022 C290.3895,191.7272 290.4355,191.5452 290.4615,191.3692 C290.5305,190.8272 290.5735,190.2852 290.5735,189.7362 L290.5735,101.3622 C290.5735,100.8132 290.5305,100.2712 290.4615,99.7372 L290.4615,99.7372 Z" id="Fill-3"></path>
        </g>
    </g>
</svg>